<svg xmlns="http://www.w3.org/2000/svg" width="1000" height="600"><rect width="1000" height="600" rx="36" fill="#f6f9fd"/><rect width="1000" height="150" rx="36" fill="#184888"/><rect y="115" width="1000" height="35" fill="#184888"/><text x="50" y="63" font-family="Arial" font-size="34" fill="#fff" font-weight="700">Contracepção no puerpério</text><text x="50" y="105" font-family="Arial" font-size="20" fill="#dbe9fa">Risco trombótico e lactação mudam a escolha</text><rect x="55" y="205" rx="24" width="390" height="125" fill="#fff" stroke="#b9cbe3" stroke-width="2"/><circle cx="97" cy="247" r="19" fill="#184888"/><text x="97" y="253" text-anchor="middle" font-family="Arial" font-size="19" fill="#fff" font-weight="700">1</text><text x="133" y="255" font-family="Arial" font-size="19" fill="#1e2f45" font-weight="600">&lt;21 dias</text><rect x="500" y="205" rx="24" width="390" height="125" fill="#fff" stroke="#b9cbe3" stroke-width="2"/><circle cx="542" cy="247" r="19" fill="#184888"/><text x="542" y="253" text-anchor="middle" font-family="Arial" font-size="19" fill="#fff" font-weight="700">2</text><text x="578" y="255" font-family="Arial" font-size="19" fill="#1e2f45" font-weight="600">21–42 dias</text><rect x="55" y="375" rx="24" width="390" height="125" fill="#fff" stroke="#b9cbe3" stroke-width="2"/><circle cx="97" cy="417" r="19" fill="#184888"/><text x="97" y="423" text-anchor="middle" font-family="Arial" font-size="19" fill="#fff" font-weight="700">3</text><text x="133" y="425" font-family="Arial" font-size="19" fill="#1e2f45" font-weight="600">≥42 dias</text><rect x="500" y="375" rx="24" width="390" height="125" fill="#fff" stroke="#b9cbe3" stroke-width="2"/><circle cx="542" cy="417" r="19" fill="#184888"/><text x="542" y="423" text-anchor="middle" font-family="Arial" font-size="19" fill="#fff" font-weight="700">4</text><text x="578" y="425" font-family="Arial" font-size="19" fill="#1e2f45" font-weight="600">Aleitamento</text><text x="950" y="565" text-anchor="end" font-family="Arial" font-size="16" fill="#6f8197">LURIA · esquema didático</text></svg>