<svg xmlns="http://www.w3.org/2000/svg" width="900" height="600" viewBox="0 0 900 600"><metadata><source>Wikimedia Commons — Mallampati.svg</source><url>https://commons.wikimedia.org/wiki/File:Mallampati.svg</url><note>Esquema didático original LURIA baseado na fonte citada; não é reprodução da figura original.</note></metadata><rect width="900" height="600" fill="#ffffff"/><rect x="0" y="0" width="900" height="10" fill="#184888"/><text x="50" y="58" font-family="Arial, sans-serif" font-size="31" font-weight="700" fill="#16263d">Mallampati</text><text x="50" y="90" dy="0" font-family="Arial" font-size="17" fill="#5f6b7a">Classes I–IV: estruturas orofaríngeas visíveis</text><rect x="50" y="135" width="790" height="72" rx="12" fill="#eef4fb" stroke="#dbe8f6"/><circle cx="74" cy="171.0" r="13" fill="#184888"/><text x="74" y="176.0" text-anchor="middle" font-family="Arial" font-size="12" font-weight="700" fill="#fff">1</text><text x="98" y="166.0" font-family="Arial" font-size="16" fill="#16263d">I: palato, fauces, úvula e pilares</text><rect x="50" y="217" width="790" height="72" rx="12" fill="#eef4fb" stroke="#dbe8f6"/><circle cx="74" cy="253.0" r="13" fill="#184888"/><text x="74" y="258.0" text-anchor="middle" font-family="Arial" font-size="12" font-weight="700" fill="#fff">2</text><text x="98" y="248.0" font-family="Arial" font-size="16" fill="#16263d">II: palato, fauces e parte da úvula</text><rect x="50" y="299" width="790" height="72" rx="12" fill="#eef4fb" stroke="#dbe8f6"/><circle cx="74" cy="335.0" r="13" fill="#184888"/><text x="74" y="340.0" text-anchor="middle" font-family="Arial" font-size="12" font-weight="700" fill="#fff">3</text><text x="98" y="330.0" font-family="Arial" font-size="16" fill="#16263d">III: palato + base da úvula</text><rect x="50" y="381" width="790" height="72" rx="12" fill="#eef4fb" stroke="#dbe8f6"/><circle cx="74" cy="417.0" r="13" fill="#184888"/><text x="74" y="422.0" text-anchor="middle" font-family="Arial" font-size="12" font-weight="700" fill="#fff">4</text><text x="98" y="412.0" font-family="Arial" font-size="16" fill="#16263d">IV: apenas palato duro</text><line x1="50" y1="548" x2="850" y2="548" stroke="#dbe8f6"/><text x="50" y="575" font-family="Arial" font-size="12" fill="#5f6b7a">Fonte-base: Wikimedia Commons — Mallampati.svg</text></svg>